<svg width="130" height="282" viewBox="0 0 130 282" fill="none" xmlns="http://www.w3.org/2000/svg">
<path d="M45.064 46.696V117.872C45.064 120.517 45.6427 122.419 46.8 123.576C48.1227 124.733 50.9333 125.312 55.232 125.312H73.584V148.872H42.088C32.664 148.872 25.0587 147.88 19.272 145.896C13.6507 143.912 9.43467 140.44 6.624 135.48C3.97867 130.355 2.24267 124.899 1.416 119.112C0.754667 113.325 0.424001 105.555 0.424001 95.8C0.424001 85.88 0.754667 78.3573 1.416 73.232C2.24267 68.1067 3.97867 63.312 6.624 58.848C9.43467 54.384 13.6507 51.2427 19.272 49.424C25.0587 47.6053 32.664 46.696 42.088 46.696H45.064ZM4.888 170.696H36.136C38.4507 170.696 39.856 171.027 40.352 171.688C40.848 172.349 41.096 173.755 41.096 175.904V195.248C41.096 197.893 41.4267 199.795 42.088 200.952C42.9147 201.944 44.816 202.44 47.792 202.44H54.984V181.36H74.824V281.304H54.984V226H38.12C26.0507 226 16.8747 223.933 10.592 219.8C4.47467 215.667 1.416 208.475 1.416 198.224V175.904C1.416 172.432 2.57333 170.696 4.888 170.696ZM74.824 0.0719819V46.696H86.48C98.5493 46.696 107.643 48.7627 113.76 52.896C120.043 57.0293 123.184 64.2213 123.184 74.472V96.792C123.184 100.264 122.027 102 119.712 102H88.464C86.1493 102 84.744 101.669 84.248 101.008C83.752 100.347 83.504 98.9413 83.504 96.792V77.448C83.504 74.8027 83.0907 72.984 82.264 71.992C81.6027 70.8347 79.784 70.256 76.808 70.256H74.824V102.496H54.984V0.0719819H74.824ZM87.472 125.56C94.5813 125.56 100.037 125.725 103.84 126.056C107.808 126.221 111.611 126.965 115.248 128.288C118.885 129.445 121.365 130.851 122.688 132.504C124.176 134.157 125.499 137.051 126.656 141.184C127.979 145.152 128.723 149.451 128.888 154.08C129.053 158.709 129.136 165.323 129.136 173.92C129.136 182.517 129.053 189.379 128.888 194.504C128.723 199.464 127.979 204.259 126.656 208.888C125.499 213.352 124.176 216.493 122.688 218.312C121.365 220.131 118.885 221.784 115.248 223.272C111.611 224.595 107.808 225.421 103.84 225.752C100.037 225.917 94.5813 226 87.472 226H84.744L84.496 125.56H87.472Z" fill="#A9AC5D"/>
</svg>
